<svg width="16" height="15" viewBox="0 0 16 15" fill="none" xmlns="http://www.w3.org/2000/svg">
<path d="M14.8667 14.1667L13.5333 12.8333M7.86666 13.5C8.69836 13.5 9.52192 13.3362 10.2903 13.0179C11.0587 12.6996 11.7569 12.2331 12.345 11.645C12.9331 11.0569 13.3996 10.3587 13.7179 9.59033C14.0362 8.82193 14.2 7.99837 14.2 7.16667C14.2 6.33496 14.0362 5.5114 13.7179 4.74301C13.3996 3.97461 12.9331 3.27643 12.345 2.68833C11.7569 2.10022 11.0587 1.63371 10.2903 1.31543C9.52192 0.997152 8.69836 0.833336 7.86666 0.833336C6.18695 0.833336 4.57605 1.5006 3.38832 2.68833C2.20058 3.87606 1.53333 5.48696 1.53333 7.16667C1.53333 8.84637 2.20058 10.4573 3.38832 11.645C4.57605 12.8327 6.18695 13.5 7.86666 13.5Z" stroke="#A0A0A0" stroke-width="1.5" stroke-linecap="round" stroke-linejoin="round"/>
</svg>
